G04 #@! TF.GenerationSoftware,KiCad,Pcbnew,7.0.1*
G04 #@! TF.CreationDate,2023-08-31T11:45:27+03:00*
G04 #@! TF.ProjectId,esp32_hotplate_digital,65737033-325f-4686-9f74-706c6174655f,rev?*
G04 #@! TF.SameCoordinates,Original*
G04 #@! TF.FileFunction,Soldermask,Top*
G04 #@! TF.FilePolarity,Negative*
%FSLAX46Y46*%
G04 Gerber Fmt 4.6, Leading zero omitted, Abs format (unit mm)*
G04 Created by KiCad (PCBNEW 7.0.1) date 2023-08-31 11:45:27*
%MOMM*%
%LPD*%
G01*
G04 APERTURE LIST*
G04 Aperture macros list*
%AMRoundRect*
0 Rectangle with rounded corners*
0 $1 Rounding radius*
0 $2 $3 $4 $5 $6 $7 $8 $9 X,Y pos of 4 corners*
0 Add a 4 corners polygon primitive as box body*
4,1,4,$2,$3,$4,$5,$6,$7,$8,$9,$2,$3,0*
0 Add four circle primitives for the rounded corners*
1,1,$1+$1,$2,$3*
1,1,$1+$1,$4,$5*
1,1,$1+$1,$6,$7*
1,1,$1+$1,$8,$9*
0 Add four rect primitives between the rounded corners*
20,1,$1+$1,$2,$3,$4,$5,0*
20,1,$1+$1,$4,$5,$6,$7,0*
20,1,$1+$1,$6,$7,$8,$9,0*
20,1,$1+$1,$8,$9,$2,$3,0*%
G04 Aperture macros list end*
%ADD10RoundRect,0.250000X-0.350000X-0.450000X0.350000X-0.450000X0.350000X0.450000X-0.350000X0.450000X0*%
%ADD11RoundRect,0.250000X0.450000X-0.325000X0.450000X0.325000X-0.450000X0.325000X-0.450000X-0.325000X0*%
%ADD12R,2.000000X2.000000*%
%ADD13R,1.000000X1.700000*%
%ADD14C,2.000000*%
%ADD15RoundRect,0.250000X0.450000X-0.350000X0.450000X0.350000X-0.450000X0.350000X-0.450000X-0.350000X0*%
%ADD16C,0.650000*%
%ADD17O,1.600000X1.000000*%
%ADD18O,2.100000X1.000000*%
%ADD19RoundRect,0.250000X-0.600000X-0.750000X0.600000X-0.750000X0.600000X0.750000X-0.600000X0.750000X0*%
%ADD20O,1.700000X2.000000*%
%ADD21RoundRect,0.250000X0.750000X-0.600000X0.750000X0.600000X-0.750000X0.600000X-0.750000X-0.600000X0*%
%ADD22O,2.000000X1.700000*%
%ADD23RoundRect,0.250000X-0.600000X-0.725000X0.600000X-0.725000X0.600000X0.725000X-0.600000X0.725000X0*%
%ADD24O,1.700000X1.950000*%
%ADD25C,1.200000*%
G04 APERTURE END LIST*
D10*
X81864200Y-96536000D03*
X83864200Y-96536000D03*
X81864200Y-98491800D03*
X83864200Y-98491800D03*
D11*
X87918800Y-98577000D03*
X87918800Y-96527000D03*
D12*
X59893200Y-52984400D03*
X78359000Y-52984400D03*
D13*
X127508000Y-60355400D03*
X127508000Y-66655400D03*
X123708000Y-60355400D03*
X123708000Y-66655400D03*
D12*
X68580000Y-52984400D03*
X75057000Y-52984400D03*
X63144400Y-52984400D03*
X71831200Y-52984400D03*
D14*
X62738000Y-68580000D03*
X62738000Y-71120000D03*
X62738000Y-73660000D03*
X62738000Y-76200000D03*
X62738000Y-78740000D03*
X62738000Y-81280000D03*
X62738000Y-83820000D03*
D11*
X85861400Y-98577000D03*
X85861400Y-96527000D03*
D15*
X91982800Y-98577400D03*
X91982800Y-96577400D03*
D13*
X127533000Y-85115400D03*
X127533000Y-91415400D03*
X123733000Y-85115400D03*
X123733000Y-91415400D03*
D11*
X89976200Y-98577000D03*
X89976200Y-96527000D03*
D13*
X127533000Y-73050400D03*
X127533000Y-79350400D03*
X123733000Y-73050400D03*
X123733000Y-79350400D03*
D16*
X48826800Y-66009000D03*
X48826800Y-60229000D03*
D17*
X45176800Y-67439000D03*
D18*
X49356800Y-67439000D03*
D17*
X45176800Y-58799000D03*
D18*
X49356800Y-58799000D03*
D19*
X116438000Y-55245000D03*
D20*
X118938000Y-55245000D03*
D21*
X47625000Y-82637000D03*
D22*
X47625000Y-80137000D03*
D23*
X89052400Y-55219600D03*
D24*
X91552400Y-55219600D03*
X94052400Y-55219600D03*
X96552400Y-55219600D03*
D25*
X128397000Y-81384600D03*
X128397000Y-89384600D03*
D21*
X47625000Y-74041000D03*
D22*
X47625000Y-71541000D03*
D19*
X107040000Y-55228000D03*
D20*
X109540000Y-55228000D03*
D21*
X47625000Y-91146000D03*
D22*
X47625000Y-88646000D03*
M02*
