G04 #@! TF.GenerationSoftware,KiCad,Pcbnew,7.0.1*
G04 #@! TF.CreationDate,2023-08-31T11:45:27+03:00*
G04 #@! TF.ProjectId,esp32_hotplate_digital,65737033-325f-4686-9f74-706c6174655f,rev?*
G04 #@! TF.SameCoordinates,Original*
G04 #@! TF.FileFunction,Paste,Bot*
G04 #@! TF.FilePolarity,Positive*
%FSLAX46Y46*%
G04 Gerber Fmt 4.6, Leading zero omitted, Abs format (unit mm)*
G04 Created by KiCad (PCBNEW 7.0.1) date 2023-08-31 11:45:27*
%MOMM*%
%LPD*%
G01*
G04 APERTURE LIST*
G04 Aperture macros list*
%AMRoundRect*
0 Rectangle with rounded corners*
0 $1 Rounding radius*
0 $2 $3 $4 $5 $6 $7 $8 $9 X,Y pos of 4 corners*
0 Add a 4 corners polygon primitive as box body*
4,1,4,$2,$3,$4,$5,$6,$7,$8,$9,$2,$3,0*
0 Add four circle primitives for the rounded corners*
1,1,$1+$1,$2,$3*
1,1,$1+$1,$4,$5*
1,1,$1+$1,$6,$7*
1,1,$1+$1,$8,$9*
0 Add four rect primitives between the rounded corners*
20,1,$1+$1,$2,$3,$4,$5,0*
20,1,$1+$1,$4,$5,$6,$7,0*
20,1,$1+$1,$6,$7,$8,$9,0*
20,1,$1+$1,$8,$9,$2,$3,0*%
%AMRotRect*
0 Rectangle, with rotation*
0 The origin of the aperture is its center*
0 $1 length*
0 $2 width*
0 $3 Rotation angle, in degrees counterclockwise*
0 Add horizontal line*
21,1,$1,$2,0,0,$3*%
G04 Aperture macros list end*
%ADD10RoundRect,0.250000X-0.350000X-0.450000X0.350000X-0.450000X0.350000X0.450000X-0.350000X0.450000X0*%
%ADD11RoundRect,0.250000X-0.337500X-0.475000X0.337500X-0.475000X0.337500X0.475000X-0.337500X0.475000X0*%
%ADD12RoundRect,0.250000X0.450000X-0.350000X0.450000X0.350000X-0.450000X0.350000X-0.450000X-0.350000X0*%
%ADD13R,2.200000X7.500000*%
%ADD14RoundRect,0.250000X-0.450000X0.325000X-0.450000X-0.325000X0.450000X-0.325000X0.450000X0.325000X0*%
%ADD15RoundRect,0.250000X0.475000X-0.337500X0.475000X0.337500X-0.475000X0.337500X-0.475000X-0.337500X0*%
%ADD16R,1.450000X0.600000*%
%ADD17R,1.450000X0.300000*%
%ADD18RoundRect,0.250000X-0.450000X0.350000X-0.450000X-0.350000X0.450000X-0.350000X0.450000X0.350000X0*%
%ADD19RoundRect,0.150000X-0.825000X-0.150000X0.825000X-0.150000X0.825000X0.150000X-0.825000X0.150000X0*%
%ADD20R,2.000000X2.000000*%
%ADD21RoundRect,0.250000X0.565685X0.070711X0.070711X0.565685X-0.565685X-0.070711X-0.070711X-0.565685X0*%
%ADD22RoundRect,0.150000X-0.587500X-0.150000X0.587500X-0.150000X0.587500X0.150000X-0.587500X0.150000X0*%
%ADD23R,1.550000X2.350000*%
%ADD24RoundRect,0.250000X0.070711X-0.565685X0.565685X-0.070711X-0.070711X0.565685X-0.565685X0.070711X0*%
%ADD25RoundRect,0.250000X0.337500X0.475000X-0.337500X0.475000X-0.337500X-0.475000X0.337500X-0.475000X0*%
%ADD26RoundRect,0.250000X-0.450000X-0.800000X0.450000X-0.800000X0.450000X0.800000X-0.450000X0.800000X0*%
%ADD27RoundRect,0.250000X-0.625000X0.375000X-0.625000X-0.375000X0.625000X-0.375000X0.625000X0.375000X0*%
%ADD28R,1.600000X0.700000*%
%ADD29R,1.500000X1.200000*%
%ADD30R,2.200000X1.200000*%
%ADD31R,1.500000X1.600000*%
%ADD32RoundRect,0.250000X0.350000X0.450000X-0.350000X0.450000X-0.350000X-0.450000X0.350000X-0.450000X0*%
%ADD33RoundRect,0.150000X0.587500X0.150000X-0.587500X0.150000X-0.587500X-0.150000X0.587500X-0.150000X0*%
%ADD34RoundRect,0.250000X-0.412500X-0.650000X0.412500X-0.650000X0.412500X0.650000X-0.412500X0.650000X0*%
%ADD35R,0.600000X1.200000*%
%ADD36RotRect,1.400000X1.200000X315.000000*%
%ADD37RoundRect,0.250000X-0.375000X-0.625000X0.375000X-0.625000X0.375000X0.625000X-0.375000X0.625000X0*%
%ADD38RoundRect,0.250000X-0.070711X0.565685X-0.565685X0.070711X0.070711X-0.565685X0.565685X-0.070711X0*%
%ADD39RoundRect,0.150000X0.150000X-0.512500X0.150000X0.512500X-0.150000X0.512500X-0.150000X-0.512500X0*%
%ADD40RoundRect,0.250000X0.800000X-0.450000X0.800000X0.450000X-0.800000X0.450000X-0.800000X-0.450000X0*%
%ADD41RoundRect,0.150000X-0.150000X0.587500X-0.150000X-0.587500X0.150000X-0.587500X0.150000X0.587500X0*%
%ADD42RoundRect,0.250000X0.650000X-0.412500X0.650000X0.412500X-0.650000X0.412500X-0.650000X-0.412500X0*%
%ADD43R,2.000000X1.500000*%
%ADD44R,2.000000X3.800000*%
%ADD45RoundRect,0.237500X-0.380070X0.044194X0.044194X-0.380070X0.380070X-0.044194X-0.044194X0.380070X0*%
%ADD46R,0.900000X1.500000*%
%ADD47R,1.500000X0.900000*%
%ADD48R,1.050000X1.050000*%
%ADD49RoundRect,0.150000X0.150000X-0.587500X0.150000X0.587500X-0.150000X0.587500X-0.150000X-0.587500X0*%
%ADD50RoundRect,0.237500X0.380070X-0.044194X-0.044194X0.380070X-0.380070X0.044194X0.044194X-0.380070X0*%
%ADD51RoundRect,0.237500X-0.237500X0.300000X-0.237500X-0.300000X0.237500X-0.300000X0.237500X0.300000X0*%
%ADD52RoundRect,0.150000X-0.512500X-0.150000X0.512500X-0.150000X0.512500X0.150000X-0.512500X0.150000X0*%
G04 APERTURE END LIST*
D10*
X104664000Y-74472800D03*
X106664000Y-74472800D03*
D11*
X109452500Y-59436000D03*
X111527500Y-59436000D03*
D12*
X102108000Y-93710000D03*
X102108000Y-91710000D03*
D13*
X57588162Y-95485599D03*
X63588162Y-95485599D03*
D14*
X99084001Y-87630002D03*
X99084001Y-89680002D03*
D15*
X103378000Y-64262000D03*
X103378000Y-62187000D03*
D16*
X50271800Y-66369000D03*
X50271800Y-65569000D03*
D17*
X50271800Y-64369000D03*
X50271800Y-63369000D03*
X50271800Y-62869000D03*
X50271800Y-61869000D03*
D16*
X50271800Y-60669000D03*
X50271800Y-59869000D03*
X50271800Y-59869000D03*
X50271800Y-60669000D03*
D17*
X50271800Y-61369000D03*
X50271800Y-62369000D03*
X50271800Y-63869000D03*
X50271800Y-64869000D03*
D16*
X50271800Y-65569000D03*
X50271800Y-66369000D03*
D18*
X109139100Y-71304400D03*
X109139100Y-73304400D03*
D10*
X69967600Y-95739599D03*
X71967600Y-95739599D03*
D19*
X69038000Y-66548000D03*
X69038000Y-65278000D03*
X69038000Y-64008000D03*
X69038000Y-62738000D03*
X69038000Y-61468000D03*
X69038000Y-60198000D03*
X69038000Y-58928000D03*
X69038000Y-57658000D03*
X73988000Y-57658000D03*
X73988000Y-58928000D03*
X73988000Y-60198000D03*
X73988000Y-61468000D03*
X73988000Y-62738000D03*
X73988000Y-64008000D03*
X73988000Y-65278000D03*
X73988000Y-66548000D03*
D20*
X105999400Y-83941800D03*
X105999400Y-76941800D03*
X112999400Y-76941800D03*
X112999400Y-83941800D03*
D15*
X92456000Y-94890500D03*
X92456000Y-92815500D03*
D21*
X123693907Y-98065307D03*
X122279693Y-96651093D03*
D15*
X80594200Y-95322300D03*
X80594200Y-93247300D03*
D18*
X53060600Y-54219600D03*
X53060600Y-56219600D03*
D22*
X82324500Y-56322000D03*
X82324500Y-54422000D03*
X84199500Y-55372000D03*
D23*
X58216800Y-54187200D03*
X58216800Y-58487200D03*
D15*
X89154000Y-94886600D03*
X89154000Y-92811600D03*
D12*
X96012000Y-93710000D03*
X96012000Y-91710000D03*
D24*
X93577693Y-64943707D03*
X94991907Y-63529493D03*
D25*
X103653500Y-84836000D03*
X101578500Y-84836000D03*
D26*
X107401000Y-87249000D03*
X111801000Y-87249000D03*
D27*
X55219600Y-54251400D03*
X55219600Y-57051400D03*
D10*
X66192162Y-95739599D03*
X68192162Y-95739599D03*
X77690000Y-56388000D03*
X79690000Y-56388000D03*
D28*
X117397000Y-88584600D03*
X117397000Y-87484600D03*
X117397000Y-86384600D03*
X117397000Y-85284600D03*
X117397000Y-84184600D03*
X117397000Y-83084600D03*
X117397000Y-81984600D03*
X117397000Y-80884600D03*
D29*
X118397000Y-78584600D03*
D30*
X127997000Y-78584600D03*
X127997000Y-94084600D03*
D31*
X118397000Y-93184600D03*
D28*
X117397000Y-79784600D03*
D32*
X118922000Y-62230000D03*
X116922000Y-62230000D03*
D18*
X82651600Y-93310200D03*
X82651600Y-95310200D03*
D10*
X56404000Y-85598000D03*
X58404000Y-85598000D03*
D33*
X58420000Y-77282000D03*
X58420000Y-79182000D03*
X56545000Y-78232000D03*
D10*
X120996200Y-75514200D03*
X122996200Y-75514200D03*
D32*
X58039000Y-81788000D03*
X56039000Y-81788000D03*
D25*
X61743500Y-90043000D03*
X59668500Y-90043000D03*
D34*
X96481500Y-84836000D03*
X99606500Y-84836000D03*
D15*
X105410000Y-64283500D03*
X105410000Y-62208500D03*
D35*
X107574000Y-64810000D03*
X108524000Y-64810000D03*
X109474000Y-64810000D03*
X109474000Y-67310000D03*
X108524000Y-67310000D03*
X107574000Y-67310000D03*
D12*
X53975000Y-90154000D03*
X53975000Y-88154000D03*
D32*
X109524000Y-62230000D03*
X107524000Y-62230000D03*
D14*
X96036002Y-87621000D03*
X96036002Y-89671000D03*
D36*
X64416223Y-55771142D03*
X65971858Y-57326777D03*
X64769777Y-58528858D03*
X63214142Y-56973223D03*
D14*
X102116001Y-87630000D03*
X102116001Y-89680000D03*
D37*
X51533600Y-94386400D03*
X54333600Y-94386400D03*
D38*
X116683507Y-94746093D03*
X115269293Y-96160307D03*
D39*
X57779999Y-90159000D03*
X56829999Y-90159000D03*
X55879999Y-90159000D03*
X55879999Y-87884000D03*
X56829999Y-87884000D03*
X57779999Y-87884000D03*
D34*
X66264662Y-98406599D03*
X69389662Y-98406599D03*
D21*
X112674400Y-95453200D03*
X111260186Y-94038986D03*
D40*
X52324000Y-75987000D03*
X52324000Y-71587000D03*
D41*
X108143000Y-90043000D03*
X110043000Y-90043000D03*
X109093000Y-91918000D03*
D21*
X114071400Y-94056200D03*
X112657186Y-92641986D03*
D42*
X51816000Y-90081500D03*
X51816000Y-86956500D03*
D10*
X77690000Y-54102000D03*
X79690000Y-54102000D03*
D43*
X102972000Y-77456000D03*
X102972000Y-79756000D03*
D44*
X96672000Y-79756000D03*
D43*
X102972000Y-82056000D03*
D11*
X119104500Y-59436000D03*
X121179500Y-59436000D03*
D12*
X99060000Y-93710001D03*
X99060000Y-91710001D03*
D45*
X62120648Y-58572120D03*
X63340408Y-59791880D03*
D46*
X86589000Y-90871000D03*
X85319000Y-90871000D03*
X84049000Y-90871000D03*
X82779000Y-90871000D03*
X81509000Y-90871000D03*
X80239000Y-90871000D03*
X78969000Y-90871000D03*
X77699000Y-90871000D03*
X76429000Y-90871000D03*
X75159000Y-90871000D03*
X73889000Y-90871000D03*
X72619000Y-90871000D03*
X71349000Y-90871000D03*
X70079000Y-90871000D03*
D47*
X68539000Y-87581000D03*
X68539000Y-86311000D03*
X68539000Y-85041000D03*
X68539000Y-83771000D03*
X68539000Y-82501000D03*
X68539000Y-81231000D03*
X68539000Y-79961000D03*
X68539000Y-78691000D03*
X68539000Y-77421000D03*
X68539000Y-76151000D03*
D46*
X70079000Y-72871000D03*
X71349000Y-72871000D03*
X72619000Y-72871000D03*
X73889000Y-72871000D03*
X75159000Y-72871000D03*
X76429000Y-72871000D03*
X77699000Y-72871000D03*
X78969000Y-72871000D03*
X80239000Y-72871000D03*
X81509000Y-72871000D03*
X82779000Y-72871000D03*
X84049000Y-72871000D03*
X85319000Y-72871000D03*
X86589000Y-72871000D03*
D48*
X77724000Y-84076000D03*
X79249000Y-84076000D03*
X80774000Y-84076000D03*
X77724000Y-82551000D03*
X79249000Y-82551000D03*
X80774000Y-82551000D03*
X77724000Y-81026000D03*
X79249000Y-81026000D03*
X80774000Y-81026000D03*
D32*
X58023000Y-73406000D03*
X56023000Y-73406000D03*
D15*
X112776000Y-64283500D03*
X112776000Y-62208500D03*
D35*
X116972000Y-64810000D03*
X117922000Y-64810000D03*
X118872000Y-64810000D03*
X118872000Y-67310000D03*
X117922000Y-67310000D03*
X116972000Y-67310000D03*
D15*
X74372000Y-55393500D03*
X74372000Y-53318500D03*
D18*
X51104800Y-54219600D03*
X51104800Y-56219600D03*
D49*
X95946000Y-61008500D03*
X94046000Y-61008500D03*
X94996000Y-59133500D03*
D15*
X114808000Y-64283500D03*
X114808000Y-62208500D03*
D34*
X99110000Y-74828400D03*
X102235000Y-74828400D03*
D50*
X67150408Y-55854880D03*
X65930648Y-54635120D03*
D18*
X111348900Y-72488800D03*
X111348900Y-74488800D03*
D51*
X66903600Y-64771100D03*
X66903600Y-66496100D03*
D40*
X52324000Y-84623000D03*
X52324000Y-80223000D03*
D33*
X58293000Y-68773000D03*
X58293000Y-70673000D03*
X56418000Y-69723000D03*
D52*
X55880000Y-64069000D03*
X55880000Y-63119000D03*
X55880000Y-62169000D03*
X58155000Y-62169000D03*
X58155000Y-63119000D03*
X58155000Y-64069000D03*
D11*
X84814500Y-93472000D03*
X86889500Y-93472000D03*
D10*
X120996200Y-72542400D03*
X122996200Y-72542400D03*
D22*
X82246000Y-60066000D03*
X82246000Y-58166000D03*
X84121000Y-59116000D03*
D11*
X53191500Y-92176600D03*
X55266500Y-92176600D03*
D15*
X71070000Y-55393500D03*
X71070000Y-53318500D03*
M02*
