M48
; DRILL file {KiCad 7.0.1} date Thu Aug 31 11:45:31 2023
; FORMAT={-:-/ absolute / metric / decimal}
; #@! TF.CreationDate,2023-08-31T11:45:31+03:00
; #@! TF.GenerationSoftware,Kicad,Pcbnew,7.0.1
; #@! TF.FileFunction,Plated,1,2,PTH
FMAT,2
METRIC
; #@! TA.AperFunction,Plated,PTH,ComponentDrill
T1C0.200
; #@! TA.AperFunction,Plated,PTH,ViaDrill
T2C0.320
; #@! TA.AperFunction,Plated,PTH,ViaDrill
T3C0.350
; #@! TA.AperFunction,Plated,PTH,ViaDrill
T4C0.450
; #@! TA.AperFunction,Plated,PTH,ComponentDrill
T5C0.600
; #@! TA.AperFunction,Plated,PTH,ComponentDrill
T6C0.950
; #@! TA.AperFunction,Plated,PTH,ComponentDrill
T7C1.000
; #@! TA.AperFunction,Plated,PTH,ComponentDrill
T8C1.200
%
G90
G05
T1
X77.724Y-81.788
X77.724Y-83.313
X78.486Y-81.026
X78.486Y-82.551
X78.486Y-84.076
X79.249Y-81.788
X79.249Y-83.313
X80.011Y-81.026
X80.011Y-82.551
X80.011Y-84.076
X80.774Y-81.788
X80.774Y-83.313
T2
X48.768Y-62.687
X48.835Y-64.017
T3
X48.412Y-69.494
X51.435Y-67.183
X53.467Y-86.487
X54.737Y-63.119
X56.363Y-52.807
X56.515Y-80.264
X56.642Y-71.374
X58.166Y-91.11
X61.334Y-57.658
X61.392Y-56.693
X65.017Y-53.594
X66.167Y-93.828
X66.421Y-86.106
X66.599Y-52.527
X66.675Y-87.706
X70.185Y-77.287
X70.612Y-67.158
X70.663Y-65.608
X70.714Y-64.11
X71.002Y-98.534
X71.262Y-76.795
X71.806Y-92.532
X72.272Y-97.01
X72.415Y-76.733
X72.517Y-71.476
X72.644Y-74.676
X72.771Y-89.408
X73.914Y-74.676
X73.914Y-87.63
X75.184Y-87.63
X75.896Y-57.404
X76.035Y-71.463
X76.657Y-58.725
X77.47Y-68.072
X77.851Y-92.913
X78.842Y-61.874
X78.994Y-92.558
X80.112Y-89.256
X80.272Y-63.111
X83.871Y-54.356
X84.049Y-70.612
X84.557Y-78.664
X85.954Y-79.324
X86.512Y-71.095
X86.614Y-89.154
X87.376Y-84.912
X87.884Y-82.931
X87.96Y-81.686
X88.24Y-76.683
X89.383Y-76.479
X89.433Y-85.979
X92.151Y-65.684
X94.046Y-59.69
X96.012Y-86.614
X100.33Y-87.63
X100.711Y-74.168
X101.219Y-77.724
X101.956Y-63.17
X102.108Y-86.614
X103.505Y-75.692
X105.41Y-60.96
X108.524Y-63.5
X111.455Y-89.637
X111.709Y-67.576
X112.471Y-69.875
X112.776Y-59.436
X114.084Y-90.894
X114.808Y-60.96
X114.91Y-91.567
X115.824Y-64.77
X116.103Y-93.04
X117.922Y-63.5
X119.812Y-80.874
X119.888Y-69.088
X122.555Y-58.293
X123.469Y-95.377
T4
X47.117Y-92.608
X48.133Y-93.32
X49.784Y-54.559
X51.486Y-58.903
X51.994Y-88.671
X54.569Y-84.623
X55.677Y-93.65
X74.651Y-97.358
X108.255Y-74.727
X109.068Y-79.299
X111.252Y-96.139
X112.847Y-74.463
X117.17Y-77.196
X118.161Y-95.326
X118.897Y-83.134
X129.819Y-94.361
X129.889Y-77.475
T6
X89.052Y-55.22
X91.552Y-55.22
X94.052Y-55.22
X96.552Y-55.22
T7
X47.625Y-71.541
X47.625Y-74.041
X47.625Y-80.137
X47.625Y-82.637
X47.625Y-88.646
X47.625Y-91.146
X62.738Y-68.58
X62.738Y-71.12
X62.738Y-73.66
X62.738Y-76.2
X62.738Y-78.74
X62.738Y-81.28
X62.738Y-83.82
X107.04Y-55.228
X109.54Y-55.228
X116.438Y-55.245
X118.938Y-55.245
T8
X128.397Y-81.385
X128.397Y-89.385
T5
X44.877Y-58.799G85X45.477Y-58.799
G05
X44.877Y-67.439G85X45.477Y-67.439
G05
X48.807Y-58.799G85X49.907Y-58.799
G05
X48.807Y-67.439G85X49.907Y-67.439
G05
T0
M30
